<svg width="960" height="408" viewBox="0 0 960 408" fill="none" xmlns="http://www.w3.org/2000/svg">
    <g id="VMC_logo_sam_vectorised1 1">
        <g id="Group">
            <path id="line" fill-rule="evenodd" clip-rule="evenodd" d="M624.256 191.039C709.456 191.039 794.657 191.039 879.859 191.039C883.78 191.039 883.799 191.039 883.775 194.869C883.743 200.408 884.425 199.745 878.87 199.745C708.893 199.753 538.917 199.751 368.941 199.751C368.174 199.751 367.303 199.98 366.669 199.689C365.928 199.35 365.382 198.569 364.779 197.952C364.693 197.865 364.762 197.623 364.765 197.453C364.895 189.703 363.674 191.063 370.953 191.06C455.386 191.026 539.822 191.039 624.256 191.039Z" fill="#03989E"/>
            <path id="infinity" fill-rule="evenodd" clip-rule="evenodd" d="M252.509 172.837C259.209 168.112 265.205 163.126 271.882 159.341C283.954 152.498 296.892 150.279 310.048 156.112C322.924 161.821 329.686 171.912 330.37 186.206C331.441 208.591 310.842 225.215 287.297 220.759C274.984 218.428 265.018 211.849 255.917 203.654C255.04 202.864 254.166 202.069 253.316 201.299C248.944 204.755 244.851 208.328 240.422 211.422C230.925 218.055 220.5 221.934 208.677 221.421C192.414 220.714 178.083 208.355 176.108 192.795C173.27 170.442 187.663 156.224 205.175 153.436C215.988 151.715 226.04 154.342 235.234 159.835C240.6 163.042 245.401 167.198 250.432 170.959C251.307 171.612 252.062 172.427 252.509 172.837ZM252.304 174.354C245.699 166.17 230.586 157.113 220.41 155C211.641 153.18 203.15 153.697 195.033 157.65C173.921 167.932 170.291 196.083 188.453 210.085C199.37 218.502 211.435 218.486 223.68 213.154C233.026 209.084 240.178 202.149 246.774 194.606C251.758 188.907 256.563 183.048 261.602 177.397C267.128 171.201 273.281 165.691 280.837 162.049C293.206 156.086 305.414 155.684 317.095 163.802C322.321 167.435 325.735 172.552 328.096 178.447C328.143 177.913 328.068 177.435 327.925 176.978C323.773 163.759 311.101 154.441 296.972 154.004C286.177 153.67 276.602 157.127 267.67 162.861C257.534 169.369 249.659 178.388 241.216 186.756C235.937 191.989 230.547 197.023 223.975 200.591C217.594 204.056 210.87 205.75 203.582 204.104C194.153 201.973 188.165 193.66 189.23 184.152C190.262 174.944 197.919 167.648 207.84 166.276C216.606 165.064 224.565 167.479 232 171.775C236.771 174.531 241.25 177.795 245.456 180.564C247.695 178.532 250.006 176.437 252.304 174.354ZM266.8 187.21C272.988 193.197 279.16 198.638 287.032 201.666C294.083 204.378 301.125 204.838 307.877 200.795C318.147 194.647 318.731 181.535 309.103 174.449C304.205 170.844 298.644 170.081 292.846 171.125C282.193 173.044 274.5 179.858 266.8 187.21ZM239.341 187.214C232.3 180.32 225.073 174.018 215.446 171.544C208.97 169.88 202.603 170.363 196.963 174.512C191.135 178.798 188.737 185.92 191.02 192C194.208 200.492 203.235 205.141 213.121 203.356C223.877 201.413 231.636 194.629 239.341 187.214ZM316.418 192.563C310.489 203.243 300.868 207.143 289.072 203.505C283.205 201.695 278.114 198.505 273.447 194.606C270.729 192.335 268.124 189.927 265.838 187.906C263.866 189.635 262.047 191.228 260.082 192.949C268.051 199.322 276.146 205.026 286.042 207.48C292.932 209.188 299.723 208.961 306.139 205.591C311.493 202.781 315.037 198.49 316.418 192.563Z" fill="black"/>
            <g id="maths_camp">
                <path id="camp" fill-rule="evenodd" clip-rule="evenodd" d="M718.07 269.269C726.881 267.787 733.632 260.313 733.657 251.54C733.026 251.54 732.41 251.554 731.806 251.567C730.474 251.597 729.196 251.626 727.931 251.503C725.714 251.288 724.721 252.187 724.305 254.314C723.668 257.568 722.011 260.305 718.782 261.457C711.704 263.981 703.277 263.039 700.673 253.451C698.523 245.542 698.432 237.369 700.659 229.51C703.155 220.697 709.424 219.343 716.522 220.45C721.465 221.22 723.596 224.956 724.737 229.459C724.924 230.196 725.626 231.319 726.164 231.363C728.005 231.512 729.859 231.491 731.774 231.469C732.47 231.461 733.173 231.453 733.887 231.453C733.6 227.409 732.45 223.986 730.291 220.965C725.183 213.82 717.762 212.207 709.698 213.103C701.076 214.063 695.163 218.977 692.18 227.123C689.64 234.062 689.703 241.272 690.538 248.511C692.311 263.915 702.811 271.836 718.07 269.269ZM827.807 228.871C827.749 228.263 827.69 227.656 827.642 227.048L827.964 226.982L827.966 226.982L827.967 226.981C828.176 226.939 828.385 226.896 828.596 226.853C828.753 227.235 828.912 227.617 829.072 227.998L829.072 227.999L829.072 227.999C829.389 228.755 829.706 229.512 829.998 230.277C831.125 233.217 832.257 236.156 833.389 239.094L833.391 239.099C836.899 248.206 840.407 257.314 843.767 266.474C844.664 268.915 846.171 268.945 848.065 268.982L848.176 268.984L848.308 268.987C850.253 269.031 851.526 268.743 852.348 266.534C856.02 256.649 859.822 246.812 863.624 236.975L863.624 236.974L863.625 236.971L863.638 236.936L863.65 236.906C864.585 234.486 865.521 232.066 866.454 229.645C866.702 229.003 867.014 228.386 867.327 227.769L867.328 227.768C867.477 227.474 867.626 227.179 867.768 226.882C868.25 229.43 868.308 231.795 868.241 234.156C868.143 237.609 868.029 241.062 867.914 244.514V244.515V244.515L867.914 244.521C867.718 250.413 867.522 256.304 867.41 262.199C867.271 269.368 867.379 269.362 874.468 268.975L874.53 268.972C875.98 268.893 876.678 268.488 876.676 266.889C876.639 249.781 876.637 232.673 876.676 215.565C876.681 213.95 875.985 213.486 874.527 213.515L874.148 213.522C871.807 213.568 869.46 213.615 867.124 213.496C865.225 213.4 864.282 214.069 863.599 215.927C859.639 226.684 855.585 237.405 851.53 248.126L851.528 248.131L851.526 248.137L851.511 248.178C850.855 249.911 850.199 251.645 849.544 253.379C849.309 254.002 849.007 254.601 848.64 255.33L848.639 255.331L848.639 255.331L848.638 255.333L848.638 255.333C848.447 255.712 848.239 256.125 848.013 256.596C847.784 256.062 847.582 255.604 847.401 255.192C847.069 254.439 846.807 253.843 846.577 253.235C845.613 250.671 844.647 248.107 843.682 245.543L843.671 245.513L843.659 245.483C839.993 235.749 836.327 226.014 832.737 216.251C831.968 214.155 830.875 213.271 828.628 213.488C826.69 213.677 824.705 213.66 822.762 213.493C820.408 213.292 819.713 214.161 819.726 216.521C819.776 224.396 819.772 232.27 819.768 240.144C819.764 247.676 819.761 255.207 819.804 262.738C819.811 263.909 819.775 264.861 819.745 265.634C819.686 267.188 819.655 268.02 820.054 268.463C820.515 268.974 821.547 268.97 823.77 268.959H823.77C824.524 268.956 825.413 268.952 826.464 268.967C828.106 268.992 828.717 268.362 828.685 266.703C828.56 260.651 828.46 254.599 828.359 248.546V248.545V248.544C828.272 243.285 828.184 238.026 828.081 232.768C828.057 231.468 827.932 230.17 827.807 228.871ZM798.025 268.933C798.785 268.924 799.566 268.915 800.374 268.915C800.26 268.536 800.163 268.194 800.073 267.878C799.898 267.261 799.751 266.744 799.561 266.243C793.48 250.206 787.395 234.171 781.297 218.141C779.587 213.649 779.513 213.647 774.937 213.485L774.498 213.469C772.135 213.384 771.065 214.191 770.252 216.388C766.274 227.122 762.22 237.828 758.165 248.533L758.165 248.533L758.165 248.533L758.163 248.537L758.162 248.541C756.654 252.523 755.146 256.504 753.642 260.487C752.967 262.276 752.308 264.07 751.602 265.99L751.602 265.99C751.253 266.941 750.892 267.924 750.512 268.951C751.343 268.951 752.133 268.946 752.894 268.94L752.895 268.94C754.619 268.928 756.197 268.917 757.773 268.973C759.28 269.025 760.12 268.436 760.586 266.998C761.077 265.487 761.605 263.987 762.133 262.487L762.133 262.487L762.133 262.487C762.676 260.944 763.218 259.401 763.722 257.846C764.149 256.523 764.831 255.94 766.281 255.955C772.408 256.019 778.536 256.013 784.662 255.959C786.068 255.946 786.812 256.415 787.256 257.791C788.275 260.941 789.382 264.065 790.61 267.139C790.897 267.856 791.76 268.781 792.422 268.835C794.235 268.978 796.061 268.956 798.025 268.933ZM782.357 243.723L784.074 248.624H767.004L769.451 241.562L769.638 241.024L769.755 240.686C771.545 235.522 773.306 230.44 775.068 225.358C775.341 225.33 775.617 225.302 775.89 225.275C778.012 231.326 780.133 237.377 782.323 243.626L782.357 243.723ZM900.568 241.124C900.568 238.885 900.572 236.646 900.577 234.407V234.404C900.589 228.312 900.601 222.219 900.524 216.128C900.498 214.088 901.158 213.441 903.15 213.499C905.875 213.578 908.603 213.603 911.33 213.628C916.083 213.671 920.836 213.714 925.569 214.047C932.465 214.531 938.053 217.798 940.498 224.587C942.735 230.802 942.413 236.999 937.837 242.309C934.858 245.765 930.839 247.427 926.406 247.788C921.759 248.166 917.082 248.285 912.419 248.251C910.201 248.235 909.411 248.884 909.464 251.122C909.526 253.861 909.516 256.602 909.505 259.342V259.344C909.497 261.704 909.488 264.064 909.525 266.424C909.553 268.277 908.918 269.015 907.022 268.979C906.002 268.96 905.139 268.961 904.41 268.962C902.285 268.963 901.297 268.964 900.855 268.474C900.471 268.048 900.498 267.251 900.548 265.763C900.574 264.983 900.607 264.013 900.59 262.806C900.521 257.781 900.537 252.756 900.554 247.731V247.729C900.561 245.527 900.568 243.326 900.568 241.124ZM909.514 231.012C909.514 231.787 909.514 232.562 909.513 233.336C909.512 235.199 909.511 237.061 909.516 238.923C909.518 240.146 909.783 241.086 911.346 241.064C912.841 241.043 914.338 241.059 915.834 241.074C918.51 241.102 921.184 241.13 923.846 240.95C929.16 240.589 932.424 237.044 932.713 231.858C933.017 226.435 930.091 222.049 924.867 221.306C921.088 220.768 917.221 220.808 913.373 220.848C912.634 220.856 911.896 220.863 911.159 220.867C910.608 220.87 909.641 222.126 909.589 222.851C909.453 224.804 909.475 226.769 909.497 228.733C909.506 229.493 909.515 230.253 909.514 231.012Z" fill="#FF8400"/>
                <path id="maths" fill-rule="evenodd" clip-rule="evenodd" d="M636.357 220.602C632.286 214.798 626.223 212.983 619.294 212.36C618.208 212.635 617.108 212.873 616.007 213.111C613.557 213.641 611.107 214.17 608.824 215.108C603.374 217.343 600.076 221.643 599.852 227.645C599.648 233.113 602.253 237.345 607.044 239.963C609.68 241.405 612.47 242.578 615.251 243.748L615.251 243.748L615.258 243.751C615.68 243.928 616.102 244.106 616.523 244.284C617.866 244.853 619.231 245.371 620.596 245.89L620.596 245.89L620.597 245.89C622.484 246.608 624.37 247.324 626.195 248.172C629.21 249.571 630.504 252.273 630.242 255.498C629.974 258.759 628.104 261.006 624.941 261.978C620.466 263.353 615.973 263.29 611.904 260.894C610.276 259.936 608.827 258.19 607.997 256.464C607.961 256.388 607.925 256.314 607.89 256.242C607.837 256.131 607.786 256.023 607.737 255.919C606.289 252.883 606.249 252.8 602.282 252.801C602.068 252.801 601.853 252.807 601.638 252.812C601.17 252.824 600.703 252.836 600.242 252.791C598.22 252.593 597.96 253.679 598.28 255.312C598.902 258.485 600.266 261.219 602.627 263.493C609.89 270.484 624.312 271.995 632.831 266.58C635.651 264.787 637.691 262.384 638.678 259.126C640.74 252.321 638.244 245.598 631.667 241.947C629.197 240.576 626.525 239.573 623.851 238.569C622.465 238.048 621.079 237.527 619.72 236.955C619.081 236.686 618.431 236.43 617.78 236.173C615.813 235.398 613.838 234.62 612.119 233.469C607.331 230.269 608.086 223.434 613.386 221.126C614.984 220.43 616.817 219.974 618.55 219.948C623.535 219.873 628.141 220.978 629.353 225.69C630.281 229.298 632.094 229.816 635.086 229.423C635.754 229.335 636.452 229.348 637.125 229.421C638.955 229.619 639.541 228.567 639.072 227.113C638.992 226.865 638.912 226.615 638.833 226.364L638.833 226.364C638.192 224.351 637.532 222.276 636.357 220.602ZM584.01 253.423C586.427 255.047 587.181 257.604 586.339 260.904C585.028 266.048 579.594 270.076 573.677 270.29C568.373 270.481 563.902 267.337 562.383 261.784C561.497 258.541 560.942 255.101 560.929 251.747C560.908 245.764 561.086 239.781 561.264 233.797C561.336 231.366 561.408 228.936 561.467 226.505C561.473 226.247 561.472 225.989 561.47 225.628V225.627V225.626V225.625L561.47 225.619C561.469 225.41 561.468 225.167 561.468 224.87C560.702 224.87 559.941 224.861 559.187 224.853C557.025 224.829 554.906 224.805 552.805 224.983C552.267 225.028 551.44 226.532 551.445 227.358C551.476 231.501 551.576 235.643 551.675 239.785L551.676 239.787C551.744 242.613 551.812 245.44 551.858 248.267C551.871 249.048 551.891 249.832 551.912 250.615C551.991 253.661 552.07 256.715 551.713 259.712C551.422 262.138 550.331 264.614 549.052 266.739C547.302 269.646 544.438 270.404 541.823 269.251C538.615 267.836 536.731 264.611 537.59 261.424C538.247 258.984 539.164 256.578 540.253 254.293C544.562 245.235 544.345 235.688 543.46 226.068C543.261 223.908 541.383 224.198 540.084 224.516C537.58 225.129 535.115 225.895 532.65 226.661L532.649 226.662C531.879 226.901 531.109 227.14 530.338 227.375C529.622 227.594 528.914 227.844 528.101 228.131L528.101 228.131C527.691 228.276 527.254 228.43 526.775 228.595C526.82 228.248 526.84 227.968 526.857 227.737C526.884 227.349 526.902 227.1 527.013 226.904C529.776 222.043 533.042 217.574 538.051 214.832C539.616 213.976 541.595 213.514 543.391 213.498C554.034 213.403 564.678 213.419 575.323 213.435C577.188 213.438 579.054 213.441 580.92 213.443C584.923 213.447 586.566 215.077 586.586 218.946C586.604 222.811 584.752 224.744 580.851 224.826C579.811 224.847 578.77 224.839 577.729 224.83C576.045 224.816 574.361 224.801 572.686 224.915C571.915 224.967 570.661 225.77 570.547 226.397C568.88 235.522 567.514 244.685 569.825 253.912C570.11 255.048 570.662 256.142 571.239 257.174C572.793 259.961 575.142 261.289 577.635 260.903C580.712 260.427 582.857 258.291 583.516 255.078C583.591 254.705 583.711 254.34 583.837 253.959L583.838 253.958C583.895 253.784 583.954 253.606 584.01 253.423ZM361.858 256.021C362.489 254.351 363.12 252.681 363.752 251.011L363.753 251.01C365.094 247.463 366.435 243.916 367.77 240.367C368.463 238.524 369.158 236.681 369.854 234.839C372.247 228.498 374.64 222.157 376.948 215.784C377.584 214.027 378.516 213.41 380.312 213.497C382.681 213.612 385.06 213.567 387.434 213.521L387.715 213.516C389.156 213.489 389.89 213.911 389.886 215.545C389.855 228.796 389.857 242.047 389.859 255.298V255.298V255.298V255.299C389.86 259.153 389.86 263.008 389.86 266.863C389.86 266.936 389.866 267.013 389.873 267.091C389.889 267.288 389.906 267.488 389.821 267.62C388.666 269.414 387.102 269.193 385.536 268.972C384.725 268.857 383.913 268.743 383.157 268.907C381.986 269.163 380.944 268.756 380.963 267.19L380.975 266.238C381.085 257.198 381.195 248.16 381.278 239.12C381.315 235.103 381.284 231.086 380.9 226.95C380.777 227.234 380.65 227.517 380.523 227.8L380.523 227.8L380.523 227.8L380.523 227.8C380.253 228.4 379.984 229.001 379.749 229.613C378.642 232.499 377.531 235.383 376.42 238.268L376.42 238.268L376.42 238.268L376.42 238.268L376.42 238.269L376.42 238.269L376.42 238.269C372.8 247.669 369.18 257.069 365.682 266.513C364.813 268.859 363.378 268.974 361.391 268.999C359.354 269.026 357.922 268.767 357.073 266.489C353.506 256.928 349.848 247.401 346.19 237.874C345.069 234.954 343.947 232.034 342.829 229.113C342.537 228.35 342.192 227.607 341.397 226.889C341.367 227.047 341.327 227.205 341.287 227.363C341.2 227.707 341.113 228.05 341.125 228.39C341.205 230.586 341.301 232.781 341.398 234.977L341.398 234.977C341.57 238.896 341.742 242.815 341.821 246.736C341.893 250.287 341.891 253.84 341.89 257.393C341.888 260.393 341.887 263.394 341.93 266.394C341.957 268.219 341.425 269.017 339.485 268.978C338.462 268.958 337.596 268.958 336.865 268.959C334.744 268.959 333.75 268.96 333.303 268.465C332.91 268.03 332.941 267.212 333 265.672C333.029 264.903 333.065 263.955 333.059 262.785C333.018 255.574 333.023 248.363 333.027 241.152C333.031 233.044 333.036 224.936 332.977 216.828C332.958 214.318 333.511 213.212 336.203 213.49C337.206 213.593 338.292 213.542 339.367 213.49C341.347 213.395 343.291 213.302 344.616 214.185C346.013 215.116 346.639 217.246 347.253 219.34L347.253 219.34C347.487 220.135 347.719 220.925 347.991 221.643C350.619 228.563 353.227 235.49 355.836 242.417L355.838 242.422C357.269 246.222 358.7 250.022 360.134 253.821C360.327 254.332 360.552 254.832 360.777 255.331C360.885 255.572 360.993 255.813 361.098 256.055C361.231 256.049 361.363 256.043 361.495 256.037C361.616 256.032 361.737 256.026 361.858 256.021ZM456.582 268.881H456.582C454.452 268.9 452.49 268.918 450.538 268.781C449.998 268.743 449.343 267.679 449.073 266.963C447.936 263.944 446.894 260.889 445.882 257.825C445.452 256.523 444.75 255.936 443.297 255.953C440.818 255.98 438.339 255.979 435.86 255.977C432.21 255.974 428.56 255.971 424.912 256.062C424.038 256.084 422.764 257.018 422.411 257.844C421.147 260.804 420.134 263.879 419.163 266.954C418.7 268.42 417.897 269.013 416.389 268.967C414.818 268.92 413.245 268.929 411.523 268.94C410.754 268.944 409.956 268.949 409.115 268.949C409.495 267.907 409.856 266.911 410.204 265.947L410.205 265.946C410.93 263.941 411.606 262.073 412.308 260.216C413.887 256.043 415.472 251.871 417.056 247.7C421.052 237.181 425.048 226.662 428.961 216.112C429.732 214.032 430.787 213.428 432.871 213.489C433.761 213.515 434.5 213.52 435.118 213.524C436.779 213.535 437.569 213.541 438.073 213.923C438.53 214.269 438.753 214.923 439.178 216.17C439.384 216.774 439.637 217.517 439.987 218.432C444.705 230.761 449.384 243.104 454.062 255.448C455.404 258.99 456.747 262.532 458.09 266.073C458.263 266.529 458.41 266.995 458.613 267.637L458.614 267.637C458.724 267.986 458.851 268.387 459.007 268.866C458.171 268.866 457.365 268.873 456.582 268.881ZM434.536 225.37C434.391 225.365 434.246 225.36 434.101 225.355C433.955 225.351 433.81 225.346 433.665 225.341C431.685 231.043 429.706 236.745 427.69 242.549L425.602 248.564H442.622C440.769 243.25 438.964 238.072 437.175 232.939L434.536 225.37ZM500.687 250.769C500.692 248.817 500.698 246.866 500.698 244.914C500.698 242.937 500.702 240.961 500.706 238.984C500.718 233.726 500.729 228.468 500.661 223.211C500.637 221.313 501.244 220.671 503.14 220.719C505.383 220.776 507.627 220.766 509.872 220.756C511.884 220.747 513.895 220.738 515.906 220.777C517.589 220.811 518.257 220.193 518.087 218.541C518.018 217.867 517.988 217.167 518.092 216.501C518.465 214.095 517.41 213.463 515.096 213.482C506.138 213.554 497.178 213.544 488.22 213.534C485.093 213.53 481.967 213.527 478.84 213.527C474.304 213.527 474.304 213.529 474.272 217.808C474.272 217.903 474.271 218.001 474.27 218.1C474.253 220.299 475.129 220.85 477.156 220.785C478.942 220.727 480.731 220.743 482.52 220.759C484.563 220.777 486.605 220.796 488.642 220.704C490.93 220.6 491.512 221.399 491.496 223.613C491.402 236.549 491.389 249.485 491.473 262.422C491.497 266.207 491.154 267.804 491.789 268.475C492.43 269.153 494.066 268.889 498.079 268.978C500.017 269.022 500.776 268.44 500.742 266.36C500.657 261.164 500.672 255.966 500.687 250.769Z" fill="#FF8400"/>
            </g>
            <path id="africa" fill-rule="evenodd" clip-rule="evenodd" d="M59.994 77.813C49.085 90.008 45.659 104.79 46.536 120.844C46.6727 120.149 46.8292 119.456 46.9857 118.763L46.9857 118.763C47.3239 117.266 47.6619 115.769 47.8 114.254C49.084 100.288 55.488 88.844 65.171 79.081C72.3612 71.8317 79.6111 64.6416 86.8608 57.4517C91.1477 53.2002 95.4346 48.9486 99.709 44.685C104.313 40.093 109.833 38.302 116.216 39.189C123.73 40.234 130.866 39.217 137.895 36.248C144.927 33.276 152.093 30.545 159.377 28.274C164.004 26.832 168.929 26.76 173.643 28.7C177.233 30.179 178.051 31.905 176.753 35.371L176.655 35.6319C175.692 38.1938 174.689 40.8647 176.565 43.387C176.752 43.6379 176.939 43.895 177.128 44.1547C178.411 45.9153 179.782 47.7957 181.565 48.689C189.983 52.903 198.527 56.903 207.21 60.538C211.989 62.539 213.89 61.114 215.454 56.136C215.878 54.786 216.745 53.214 217.882 52.517C221.049 50.575 224.583 49.658 228.384 50.239C230.276 50.5279 232.174 50.7761 234.072 51.0244C234.933 51.137 235.794 51.2496 236.654 51.366C231.723 49.052 226.631 47.71 221.18 48.625C216.947 49.336 213.713 51.377 212.271 55.644C211.57 57.718 210.228 57.891 208.462 57.042C206.843 56.2629 205.216 55.4985 203.589 54.7341C200.06 53.0763 196.531 51.4186 193.081 49.611C190.01 48.003 186.999 46.153 184.312 43.977C180.86 41.181 180.7 39.982 183.035 36.141C184.778 33.273 184.156 30.694 182.672 28.245C180.911 25.339 178.182 23.454 175.015 22.181C169.212 19.847 163.202 20.197 157.453 21.698C150.906 23.408 144.499 25.8 138.224 28.366C131.509 31.112 124.842 32.949 117.446 32.081C108.992 31.089 101.181 32.755 95.099 39.411C91.1133 43.7732 87.1109 48.12 83.1085 52.4668L83.1083 52.467C75.3628 60.879 67.6176 69.2908 59.994 77.813ZM377.055 153.635C377.43 152.416 377.814 151.169 378.228 149.89C376.774 149.89 375.367 149.836 374 149.784C371.041 149.672 368.264 149.566 365.584 150.025C361.95 150.646 358.398 151.749 354.847 152.851C353.435 153.29 352.023 153.728 350.606 154.136C340.408 157.073 331.33 155.604 324.268 147.094C322.792 145.315 321.3 143.547 319.808 141.777L319.807 141.776L319.804 141.773C314.604 135.608 309.399 129.436 304.84 122.824C297.043 111.515 289.843 99.7869 282.65 88.0694L282.649 88.0687C281.968 86.9589 281.287 85.8492 280.605 84.74C278.483 81.2875 276.673 77.6433 274.836 73.944L274.835 73.9422C273.99 72.2406 273.14 70.5275 272.25 68.816C272.53 68.6272 272.8 68.4603 273.057 68.3018L273.058 68.3013L273.058 68.3011L273.058 68.3009C273.603 67.9644 274.087 67.6656 274.478 67.275C275.011 66.744 275.703 65.987 275.682 65.35C275.583 62.297 275.354 59.238 274.954 56.211C274.87 55.577 273.856 54.561 273.296 54.577C269.498 54.6892 265.703 54.9166 261.908 55.1439L261.907 55.1439L261.907 55.1439L261.907 55.144L261.907 55.144L261.906 55.144L261.906 55.144C260.8 55.2103 259.693 55.2765 258.587 55.34V55.966C259.623 56.011 260.66 56.0526 261.696 56.0941C264.707 56.2147 267.719 56.3354 270.724 56.543C271.5 56.597 272.846 57.22 272.881 57.663C272.891 57.7935 272.902 57.9247 272.913 58.0563C273.08 60.1244 273.257 62.3168 272.617 64.183C272.42 64.7575 271.189 64.9775 269.955 65.1982C269.387 65.2997 268.818 65.4015 268.349 65.538C268.148 65.5966 267.95 65.6685 267.71 65.7558L267.546 65.8157C267.496 65.8334 267.445 65.8517 267.392 65.8706L267.312 65.899C267.425 66.199 267.531 66.4866 267.635 66.7656L267.635 66.7662C267.842 67.3249 268.037 67.8492 268.24 68.37C273.79 82.575 280.339 96.299 288.304 109.311C298.398 125.798 308.812 142.066 322.89 155.579C329.657 162.073 337.88 164.264 346.868 162.534C351.029 161.732 355.094 160.431 359.159 159.13L359.161 159.13C361.095 158.511 363.03 157.891 364.975 157.326C365.757 157.098 366.557 156.931 367.474 156.74L367.476 156.739L367.477 156.739L367.478 156.739L367.478 156.739C367.944 156.642 368.44 156.538 368.98 156.417C368.86 156.932 368.774 157.403 368.695 157.837L368.694 157.838C368.539 158.686 368.41 159.394 368.105 160.016C367.695 160.855 367.292 161.7 366.888 162.545L366.888 162.545L366.888 162.546L366.887 162.546L366.887 162.547C365.457 165.543 364.024 168.545 362.254 171.329C355.855 181.398 347.546 189.849 339.232 198.306C338.708 198.838 338.185 199.37 337.662 199.903C328.483 209.253 319.306 218.689 313.537 230.695C312.065 233.759 310.877 236.96 309.689 240.161C309.146 241.626 308.602 243.09 308.031 244.542C308.245 244.628 308.459 244.714 308.672 244.799C308.734 244.679 308.8 244.561 308.866 244.444C309.007 244.194 309.147 243.945 309.242 243.679C313.94 230.48 322.742 220.201 332.704 210.765C335.312 208.295 337.952 205.857 340.592 203.419L340.593 203.419C344.954 199.391 349.316 195.364 353.534 191.19C362.359 182.458 369.983 172.787 374.567 161.074C375.503 158.682 376.261 156.22 377.055 153.635ZM170.751 183.833C164.94 197.656 161.444 211.535 163.184 226.38C161.191 223.423 159.989 216.233 160.688 207.667C161.049 203.238 161.739 198.836 162.435 194.389L162.435 194.388C162.747 192.4 163.06 190.403 163.345 188.39C162.418 188.551 161.482 188.705 160.541 188.86C158.465 189.2 156.366 189.545 154.288 189.986C146.165 191.709 138.971 189.707 132.534 184.671C129.203 182.065 125.566 181.3 121.333 181.621C115.523 182.062 110.06 183.758 104.597 185.454C102.21 186.195 99.8224 186.936 97.406 187.573C88.771 189.847 80.111 191.202 71.342 188.031C64.131 185.424 59.034 180.77 57.254 173.191C55.712 166.629 52.16 161.72 46.759 157.799C42.021 154.36 38.23 150.054 36.382 144.273C35.054 140.119 36.271 136.812 39.461 135.697C39.2953 136.091 39.0746 136.506 38.8458 136.937C38.2977 137.968 37.7032 139.087 37.706 140.205C37.7088 141.828 38.5489 143.516 39.3224 145.071C39.375 145.176 39.4273 145.282 39.479 145.386C41.394 149.257 44.585 152.079 48.249 154.056C55.89 158.18 60.736 164.435 63.255 172.547C64.633 176.987 67.727 179.423 71.766 180.993C77.603 183.262 83.676 183.174 89.594 181.811C93.5593 180.898 97.4739 179.767 101.389 178.636C104.976 177.599 108.563 176.563 112.189 175.694C118.722 174.13 125.418 172.86 131.831 176.312C133.841 177.394 135.803 178.641 137.578 180.071C142.975 184.423 149.079 185.072 155.644 183.987C160.58 183.169 165.545 182.44 170.751 183.833ZM224.952 380.606C225.938 380.584 226.925 380.561 227.909 380.561C227.922 380.324 227.936 380.087 227.952 379.85C227.549 379.795 227.144 379.748 226.739 379.702L226.738 379.701L226.737 379.701C225.826 379.597 224.915 379.492 224.026 379.287C221.804 378.776 219.581 378.23 217.416 377.52C215.504 376.894 214.626 375.423 214.727 373.383C214.748 372.944 214.745 372.502 214.741 372.061V372.06C214.735 371.393 214.729 370.726 214.811 370.069C215.379 365.505 213.978 361.651 210.619 358.567C205.383 353.759 202.184 347.64 199.995 341.093C195.793 328.533 191.862 315.879 188.106 303.177C185.745 295.194 184.387 287.034 187.939 278.965C189.004 276.547 190.168 274.172 191.332 271.796L191.332 271.796L191.332 271.795C191.962 270.509 192.592 269.223 193.207 267.93C194.868 264.438 194.445 260.877 192.229 258.025C188.306 252.974 184.201 248.066 180.095 243.158L180.093 243.156C178.452 241.194 176.811 239.232 175.181 237.261L174.977 237.409L174.847 237.503L174.522 237.738C174.713 238.077 174.899 238.419 175.085 238.762L175.086 238.764L175.086 238.764C175.49 239.51 175.894 240.256 176.356 240.963C177.087 242.084 177.816 243.207 178.546 244.33L178.547 244.331C181.291 248.556 184.036 252.782 186.881 256.939C189.865 261.299 189.715 265.32 186.592 269.602C179.212 279.719 177.229 290.926 180.595 302.99C182.282 309.039 184.157 315.036 186.038 321.026L186.394 322.162L186.632 322.921C188.491 328.852 190.35 334.785 192.417 340.644C195.019 348.017 198.614 354.926 204.697 360.027C208.756 363.43 211.275 367.198 210.942 372.652C210.64 377.594 214.438 380.133 218.284 380.498C220.49 380.708 222.721 380.657 224.952 380.606ZM244.644 378.521L244.645 378.52C248.173 375.949 251.701 373.378 255.298 370.906C261.026 366.968 264.596 361.641 266.544 355.028C270.271 342.373 277.175 331.375 284.803 320.79C285.973 319.166 287.507 317.804 289.264 316.587C288.793 317.886 288.33 319.188 287.867 320.49L287.865 320.495L287.865 320.496L287.864 320.497L287.864 320.497C286.846 323.359 285.828 326.222 284.725 329.051C283.221 332.906 281.684 336.749 280.148 340.591L280.147 340.592L280.147 340.593L280.147 340.594L280.146 340.594L280.146 340.595L280.146 340.595C277.712 346.681 275.279 352.767 272.974 358.902C270.089 366.585 264.862 372.033 257.685 375.551C253.795 377.457 249.773 379.094 245.75 380.731L245.75 380.731L245.748 380.732C243.981 381.451 242.214 382.17 240.458 382.912C240.311 382.568 240.163 382.226 240.015 381.882C241.561 380.768 243.102 379.645 244.643 378.522L244.644 378.521ZM288.872 304.439C284.85 307.183 282.225 311.09 281.399 316.03C284.287 311.675 288.443 309.149 293.082 307.26C294.061 306.861 295.036 306.449 296.011 306.037C298.244 305.093 300.478 304.149 302.766 303.362C307.352 301.786 311.449 299.385 314.927 296.102C318.814 292.43 321.092 287.852 321.222 282.366C321.395 275.078 319.167 268.356 316.932 261.614L316.932 261.613C315.659 257.774 314.385 253.928 313.55 249.967C312.967 251.613 312.466 253.271 312.561 254.894C312.984 262.096 313.533 269.293 314.123 276.484C314.695 283.447 313.149 289.511 307.04 293.666C305.827 294.491 304.542 295.21 303.256 295.928C302.611 296.288 301.967 296.648 301.331 297.022C300.081 297.757 298.819 298.473 297.556 299.19L297.556 299.19L297.555 299.19C294.608 300.862 291.661 302.535 288.872 304.439ZM357.783 276.005L357.783 276.005L357.782 276.006C356.441 278.59 355.099 281.176 354.178 283.903C352.241 289.635 348.176 292.296 342.667 293.442C336.331 294.758 335.271 296.089 334.34 302.429C333.578 307.617 332.746 312.851 331.237 317.849C330.36 320.757 328.323 323.431 326.39 325.879C322.954 330.233 320.856 334.519 325.582 339.858C320.398 337.664 318.369 333.707 319.867 328.93C320.775 326.034 322.092 323.232 323.51 320.538C325.295 317.148 326.052 313.633 326.365 309.819C326.773 304.861 327.461 299.854 328.732 295.055C329.984 290.326 333.847 288.071 338.575 287.336C339.079 287.259 339.592 287.187 340.099 287.195C345.546 287.284 349.066 284.591 351.578 279.876C353.381 276.488 356.413 274.165 359.542 272.53C358.981 273.696 358.382 274.85 357.783 276.005ZM358.015 312.152C363.704 301.469 364.711 289.866 362.258 277.868C362.066 278.443 361.871 279.016 361.676 279.59C361.252 280.834 360.828 282.079 360.443 283.334C359.823 285.354 359.252 287.394 358.681 289.433C357.468 293.768 356.255 298.102 354.573 302.246C350.651 311.918 344.371 320.227 337.992 328.429C335.981 331.015 334.13 333.725 332.278 336.435C331.443 337.657 330.608 338.879 329.758 340.09C330.007 340.32 330.257 340.549 330.507 340.778C332.269 339.245 334.058 337.74 335.847 336.234C340.03 332.713 344.212 329.192 348.051 325.33C351.908 321.449 355.452 316.965 358.015 312.152Z" fill="black"/>
            <path id="wifi" fill-rule="evenodd" clip-rule="evenodd" d="M309.989 116.138C315.091 101.178 324.714 89.815 337.717 81.301C343.495 77.518 350.235 76.006 356.964 75.088C371.425 73.114 384.424 77.275 395.912 85.892C400.391 89.2521 404.468 93.1646 408.531 97.0644C409.376 97.8755 410.221 98.6861 411.068 99.491C414.118 102.387 413.972 102.795 411.113 105.866C410.117 106.935 409.128 108.011 408.138 109.087L408.137 109.088C407.286 110.013 406.434 110.938 405.579 111.86C405.512 111.931 405.407 111.966 405.268 112.012C405.189 112.038 405.101 112.068 405.002 112.109C404.905 112.006 404.803 111.901 404.698 111.795C404.469 111.562 404.229 111.318 404.019 111.052C393.029 97.208 378.535 89.253 361.275 86.638C351.942 85.224 342.901 87.057 334.511 91.889C324.774 97.496 317.024 105.007 311.197 114.568C310.962 114.953 310.671 115.304 310.381 115.655L310.381 115.655C310.248 115.815 310.116 115.975 309.989 116.138ZM399.48 118.503C396.34 121.928 393.652 124.86 390.669 128.114C390.09 127.571 389.528 127.035 388.973 126.508L388.973 126.507C387.78 125.372 386.625 124.272 385.431 123.216C379.778 118.216 373.618 113.756 366.231 112.083C351.48 108.742 339.609 114.182 330.02 125.376C329.576 125.895 329.139 126.421 328.588 127.086C328.279 127.458 327.934 127.874 327.531 128.356C330.218 120.751 334.179 114.865 339.698 109.993C346.173 104.276 353.457 100.026 362.216 99.817C366.946 99.705 371.866 100.632 376.43 101.992C383.652 104.144 389.525 108.706 394.706 114.15C395.653 115.147 396.695 116.056 397.816 117.033C398.353 117.502 398.908 117.986 399.48 118.503ZM376.929 143.839C379.485 140.78 381.916 137.872 384.416 134.882C376.927 125.427 367.599 122.348 358.238 126.035C353.037 128.085 346.874 135.182 347.247 138.923C347.554 138.697 347.856 138.482 348.153 138.271C348.784 137.822 349.389 137.393 349.95 136.912C352.533 134.696 355.501 133.759 358.896 133.884C363.787 134.066 367.902 136.041 371.565 139.123C372.749 140.12 373.905 141.15 375.133 142.245C375.712 142.761 376.307 143.291 376.929 143.839Z" fill="#FF8400"/>
            <path id="virtual" fill-rule="evenodd" clip-rule="evenodd" d="M777.209 160.789L777.209 160.791L777.208 160.793L777.208 160.795L777.208 160.797L777.207 160.798L777.207 160.8C776.772 162.926 776.337 165.051 775.928 167.18L776.012 167.203L776.095 167.225L776.197 167.253L776.286 167.276C776.336 167.29 776.387 167.304 776.437 167.318C776.499 168.058 776.553 168.799 776.606 169.54C776.73 171.257 776.854 172.973 777.085 174.676C777.277 176.09 777.693 177.508 778.224 178.837C781.221 186.322 787.779 188.538 794.482 184.107C797.072 182.395 799.403 180.179 801.528 177.892C811.409 167.262 818.545 154.766 825.676 142.278L825.681 142.27C826.183 141.392 826.684 140.514 827.186 139.637C827.806 138.557 828.268 137.267 828.36 136.041C828.419 135.229 828.197 134.397 827.976 133.565L827.976 133.564L827.976 133.564L827.976 133.564L827.976 133.563L827.976 133.563L827.975 133.562C827.879 133.199 827.782 132.836 827.709 132.475C827.434 132.683 827.156 132.887 826.877 133.092L826.876 133.093L826.876 133.093C826.194 133.594 825.512 134.095 824.875 134.647C824.628 134.861 824.469 135.176 824.311 135.492L824.311 135.492C824.234 135.645 824.157 135.797 824.07 135.939C822.441 138.585 820.833 141.246 819.226 143.907C815.382 150.268 811.539 156.629 807.405 162.795C804.019 167.844 799.851 172.408 795.686 176.864C794.587 178.039 791.809 178.858 790.497 178.276C789.195 177.697 788.168 175.176 788.083 173.454C787.96 171.012 788.147 168.555 788.334 166.097C788.431 164.823 788.528 163.549 788.582 162.276C788.598 161.924 788.47 161.569 788.34 161.212C788.235 160.923 788.13 160.633 788.099 160.34C788.057 159.936 788.174 159.506 788.287 159.091L788.288 159.088C788.309 159.011 788.33 158.933 788.35 158.857C788.786 157.192 789.215 155.525 789.644 153.858L789.65 153.836L789.65 153.835L789.65 153.834L789.65 153.833L789.651 153.832L789.651 153.831L789.651 153.83C790.871 149.092 792.091 144.354 793.457 139.659C794.057 137.593 795.163 135.59 796.397 133.806C797.836 131.725 799.353 129.694 800.869 127.663L800.869 127.662L800.869 127.662L800.869 127.662C803.173 124.576 805.475 121.492 807.504 118.237C809.47 115.082 811.548 111.994 813.625 108.905L813.626 108.904L813.626 108.904L813.626 108.903L813.626 108.903L813.627 108.903L813.627 108.902C818.703 101.356 823.78 93.8073 827.24 85.287C829.33 80.138 831.352 75.014 830.92 69.306C830.603 65.083 827.667 60.857 824.232 59.816C820.171 58.585 817.44 60.881 815.326 63.765C814.894 64.3551 814.46 64.945 814.025 65.5352L814.016 65.5472L814.016 65.5477L814.016 65.548C810.582 70.2136 807.131 74.9033 804.325 79.936C800.076 87.56 795.853 95.335 792.875 103.505C792.146 105.507 791.405 107.506 790.663 109.506L790.661 109.51L790.661 109.511C786.169 121.623 781.667 133.764 779.805 146.705C779.126 151.425 778.168 156.104 777.21 160.783L777.21 160.784L777.21 160.785L777.21 160.786L777.21 160.787L777.209 160.788L777.209 160.789ZM799.658 121.255C799.491 121.175 799.324 121.094 799.157 121.013C799.484 120.003 799.809 118.992 800.134 117.981L800.16 117.901L800.186 117.822C800.511 116.811 800.837 115.8 801.163 114.79C805.613 101.069 810.149 87.374 816.959 74.592C818.087 72.4745 819.636 70.5687 821.17 68.6808C821.453 68.3327 821.735 67.9851 822.014 67.637C822.321 67.256 822.883 67.0793 823.444 66.9028C823.702 66.8217 823.96 66.7407 824.192 66.64C824.287 66.8986 824.418 67.1636 824.548 67.4287C824.834 68.0072 825.12 68.586 825.029 69.099L824.966 69.4577C824.458 72.3334 823.945 75.2431 822.993 77.986C819.248 88.789 813.658 98.689 807.679 108.378C805.888 111.28 804.082 114.171 802.275 117.063L802.268 117.075C801.397 118.468 800.527 119.861 799.658 121.255ZM804.74 85.057L804.548 84.9057L804.544 84.9021L804.543 84.9013C804.381 84.7736 804.219 84.646 804.058 84.518L804.699 83.4526C806.179 80.99 807.659 78.5281 809.14 76.067C809.263 76.14 809.385 76.2132 809.508 76.2865L809.51 76.2882L809.81 76.4675L809.875 76.506C809.131 77.7461 808.386 78.9862 807.641 80.2263C806.674 81.8364 805.707 83.4465 804.74 85.057ZM475.109 138.701C474.077 140.38 473.046 142.059 472.018 143.741C471.826 143.711 471.634 143.682 471.439 143.653C471.439 143.146 471.428 142.639 471.416 142.131C471.391 141.028 471.367 139.925 471.459 138.831C471.647 136.623 471.896 134.416 472.146 132.21L472.146 132.209L472.146 132.209L472.146 132.209L472.146 132.209L472.146 132.209L472.146 132.209C472.642 127.823 473.138 123.437 473.145 119.051C473.155 112.37 472.748 105.688 472.341 99.007L472.341 99.0066C472.189 96.5093 472.036 94.012 471.906 91.515C471.65 86.618 471.382 81.719 470.972 76.834C470.645 72.946 469.259 71.03 466.053 71.864C459.457 73.581 455.742 78.652 456.735 85.197C458.409 96.23 459.743 107.217 459.204 118.475C459.054 121.613 459.068 124.754 459.082 127.895C459.113 134.635 459.143 141.374 457.551 148.075C456.967 150.534 456.581 153.037 456.196 155.541C455.395 160.737 454.594 165.935 452.02 170.737C450.793 173.025 451.907 174.578 454.523 175.161C459.031 176.164 463.826 173.892 465.633 169.652C466.233 168.244 466.723 166.778 467.212 165.315C467.969 163.048 468.725 160.786 469.887 158.75C471.962 155.119 473.942 151.432 475.922 147.745L475.922 147.745L475.922 147.745L475.922 147.745L475.922 147.745L475.922 147.744L475.923 147.744C480.332 139.534 484.741 131.323 490.199 123.724C490.792 122.898 491.385 122.071 491.977 121.245L491.978 121.243L491.979 121.241L491.981 121.24C499.713 110.446 507.446 99.6518 517.414 90.698C518.129 90.0569 518.818 89.3871 519.507 88.7174L519.507 88.7173L519.507 88.7172L519.507 88.7171L519.508 88.717L519.508 88.7169L519.508 88.7167L519.508 88.7164C520.219 88.0254 520.93 87.3345 521.669 86.675L521.872 86.4936L521.872 86.4935C523.162 85.3415 524.462 84.181 525.884 83.211C526.593 82.7272 527.362 82.3242 528.13 81.9221C529.174 81.3759 530.213 80.8315 531.091 80.089C532.939 78.526 532.158 76.671 530.707 75.209C530.639 75.1402 530.57 75.0702 530.501 74.9995C529.38 73.8579 528.105 72.5587 526.353 73.944C525.996 74.226 525.638 74.5075 525.28 74.7893C522.695 76.8219 520.095 78.8658 517.807 81.202C504.064 95.234 492.035 110.612 481.939 127.484C479.692 131.241 477.4 134.971 475.109 138.701ZM462.486 131.946C463.207 135.192 460.751 155.353 458.803 160.103C459.596 154.045 460.386 148.001 461.152 142.148L462.486 131.946ZM614.762 105.025C611.925 105.06 609.101 105.296 606.292 105.532C599.776 106.079 593.336 106.619 586.985 104.616L586.95 104.339C586.944 104.287 586.937 104.235 586.931 104.182C586.92 104.094 586.909 104.006 586.898 103.919L586.894 103.884L586.879 103.765C587.64 103.585 588.399 103.374 589.157 103.163C590.821 102.7 592.485 102.237 594.175 102.102C600.868 101.567 607.582 101.255 614.293 101.013C616.276 100.941 617.358 100.284 618.098 98.401C619.431 95.004 620.786 91.569 622.595 88.417C625.666 83.065 628.943 77.815 632.426 72.721C634.952 69.023 641.144 67.849 645.118 69.881C647.097 70.894 647.436 72.173 646.168 73.968C645.32 75.1682 644.45 76.3548 643.58 77.5412L643.579 77.5417L643.579 77.5422L643.578 77.5431L643.578 77.5443C641.702 80.1027 639.826 82.6607 638.166 85.353C636.304 88.3717 634.666 91.5279 633.027 94.684L633.027 94.6842L633.027 94.6853L633.026 94.6865L633.026 94.6877L633.025 94.6888L633.024 94.69C632.395 95.9033 631.765 97.1166 631.122 98.322C630.917 98.7074 630.778 99.1284 630.637 99.5569C630.569 99.7623 630.501 99.9693 630.424 100.175H647.879C648.236 102.117 646.877 103.793 644.34 103.929C639.925 104.164 635.503 104.334 631.083 104.388C628.993 104.414 627.51 104.99 626.707 107.083C625.145 111.152 623.53 115.203 621.915 119.254C616.425 133.024 610.935 146.795 607.507 161.294C607.434 161.601 607.361 161.908 607.288 162.215L607.287 162.219L607.287 162.222C606.554 165.302 605.819 168.388 605.364 171.512C605.181 172.763 605.668 175.096 606.327 175.288C607.866 175.736 609.606 175.091 610.017 172.956C610.063 172.714 610.28 172.505 610.499 172.295L610.499 172.295C610.608 172.191 610.717 172.086 610.806 171.976C613.211 169.001 615.616 166.026 618.02 163.051L618.054 163.009L618.123 162.923L618.131 162.914L618.134 162.91L618.137 162.906L618.141 162.902L618.144 162.897C624.994 154.42 631.845 145.943 638.713 137.479C638.931 137.21 639.139 136.877 639.352 136.537C640.1 135.34 640.909 134.046 642.443 135.05C644.362 136.306 642.957 138.403 641.953 139.782C633.099 151.949 624.18 164.07 615.226 176.164C613.761 178.142 612.109 179.993 610.421 181.789C606.033 186.462 600.318 186.147 597.051 180.622C595.677 178.297 594.875 175.065 595.2 172.416C596.04 165.541 597.407 158.7 599.022 151.956C600.599 145.366 602.475 138.818 604.703 132.419C606.828 126.318 609.168 120.292 611.508 114.266C612.567 111.54 613.626 108.813 614.665 106.079C614.719 105.941 614.725 105.785 614.734 105.544C614.739 105.404 614.745 105.235 614.762 105.025ZM610.857 144.007L611.185 143.096C613.634 136.299 616.083 129.501 618.533 122.704C613.246 132.965 609.359 143.719 606.905 154.976L610.785 144.207L610.821 144.107L610.857 144.007ZM743.41 127.722L743.408 127.724C742.996 128.118 742.583 128.512 742.163 128.896C741.789 128.112 741.44 127.325 741.093 126.544L741.092 126.543C740.323 124.811 739.567 123.109 738.591 121.546C736.473 118.152 732.816 116.66 729.873 118.368C726.478 120.338 722.919 122.548 720.466 125.51C715.18 131.897 712.313 139.629 710.977 147.77C710.411 151.216 710.428 154.923 711.027 158.363C712.297 165.655 720.162 166.188 723.967 161.961C727.369 158.179 730.471 154.12 733.567 150.068C734.02 149.475 734.472 148.883 734.926 148.291C736.167 146.672 737.28 144.953 738.392 143.234L738.392 143.234L738.395 143.23C738.894 142.458 739.394 141.686 739.905 140.923C740.034 140.995 740.162 141.066 740.29 141.138L740.401 141.201L740.512 141.263C740.331 142.075 740.15 142.887 739.967 143.699C739.732 144.747 739.478 145.792 739.224 146.838C738.655 149.175 738.087 151.512 737.738 153.881C737.05 158.548 737.8 163.068 740.483 167.06C743.283 171.224 747.455 171.988 751.482 169.019C753.106 167.822 754.52 166.294 755.865 164.771C762.058 157.758 766.289 149.532 770.517 141.312L770.52 141.307C771.149 140.082 771.779 138.858 772.415 137.638C772.797 136.907 772.835 135.999 772.873 135.09C772.891 134.67 772.909 134.251 772.96 133.849C772.795 133.798 772.63 133.748 772.465 133.698L772.216 133.622L772.001 133.556C771.713 133.897 771.415 134.23 771.116 134.563L771.116 134.563L771.115 134.564C770.473 135.28 769.831 135.996 769.299 136.787C767.925 138.828 766.576 140.886 765.227 142.943L765.223 142.949C763.077 146.222 760.932 149.495 758.685 152.698C756.642 155.61 754.269 158.304 751.877 160.946C751.439 161.432 750.713 161.658 749.987 161.885C749.654 161.988 749.321 162.092 749.015 162.221C748.91 161.909 748.765 161.592 748.621 161.275L748.621 161.274L748.621 161.274L748.621 161.274L748.62 161.273C748.309 160.588 747.997 159.904 748.074 159.265C748.2 158.214 748.317 157.16 748.434 156.106V156.106V156.106V156.105V156.105C749.117 149.944 749.801 143.775 752.303 137.982C752.861 136.691 753.489 135.43 754.117 134.169L754.118 134.167C754.399 133.602 754.68 133.037 754.955 132.47C756.519 129.24 756.222 127.144 753.921 125.131C751.676 123.17 749.005 123.128 746.255 125.205C745.247 125.966 744.328 126.844 743.41 127.722ZM737.13 125.981C736.904 126.086 736.681 126.19 736.455 126.294C736.613 126.895 736.782 127.494 736.951 128.093L736.952 128.095C737.353 129.519 737.754 130.943 738.015 132.39C738.204 133.436 738.284 134.853 737.737 135.625C734.034 140.865 730.218 146.025 726.401 151.186L726.361 151.24C725.703 152.13 725.045 153.021 724.387 153.911C723.988 154.45 723.507 154.981 722.949 155.339C722.426 155.675 721.595 156.093 721.188 155.893C720.765 155.686 720.426 154.742 720.502 154.18C720.622 153.288 720.717 152.385 720.812 151.48C721.081 148.905 721.352 146.319 722.215 143.957C724.194 138.559 726.667 133.336 729.133 128.129L729.133 128.129L729.133 128.128L729.133 128.128L729.133 128.128L729.462 127.433L729.764 126.794C730.344 125.572 731.576 124.531 732.742 123.762C733.465 123.288 734.835 123.103 735.538 123.484C736.067 123.769 736.383 124.447 736.699 125.126C736.837 125.422 736.975 125.718 737.13 125.981ZM674.925 143.853L674.925 143.853C673.254 145.989 671.583 148.125 669.767 150.127C666.976 153.206 664.111 156.3 660.856 158.848C658.978 160.317 656.326 161.086 653.908 161.484C652.026 161.794 650.452 160.457 649.647 158.484C648.053 154.581 648.382 150.598 649.272 146.682C649.311 146.511 649.349 146.341 649.388 146.17C649.434 145.962 649.481 145.754 649.528 145.546L649.529 145.539C650.337 141.934 651.158 138.269 652.689 134.967C655.066 129.843 658.035 124.96 661.144 120.232C662.073 118.82 664.239 117.664 665.969 117.446C670.925 116.821 672.903 119.821 670.632 124.198C670.182 125.066 669.6 125.866 669.018 126.665C668.412 127.496 667.806 128.328 667.351 129.235C666.545 130.839 665.868 132.506 665.19 134.175C664.787 135.167 664.384 136.16 663.953 137.14C663.296 138.635 662.614 140.119 661.931 141.602L661.93 141.603L661.93 141.604L661.929 141.605L661.929 141.606C661.415 142.721 660.901 143.837 660.399 144.958C660.289 145.205 660.166 145.452 660.044 145.701C659.669 146.462 659.289 147.232 659.223 148.021C659.131 149.143 659.237 150.281 659.343 151.419C659.389 151.905 659.434 152.391 659.464 152.876C659.92 152.725 660.415 152.615 660.911 152.505C661.991 152.265 663.071 152.025 663.734 151.366C666.98 148.138 670.06 144.711 672.922 141.135C674.614 139.02 676.142 136.775 677.67 134.529L677.67 134.529L677.671 134.528L677.671 134.528L677.672 134.527C678.49 133.325 679.308 132.123 680.151 130.941C680.361 130.648 680.566 130.347 680.772 130.046C681.538 128.928 682.311 127.798 683.324 126.981C684.655 125.908 686.341 124.932 687.991 124.665C691.823 124.044 693.74 126.561 692.523 130.254C691.916 132.091 691.297 133.925 690.677 135.758L690.677 135.759L690.676 135.759L690.676 135.761C689.49 139.269 688.305 142.776 687.21 146.311C686.712 147.916 686.759 149.688 686.926 151.532C691.421 149.001 694.799 145.32 698.158 141.662C700.684 138.911 703.198 136.172 706.166 133.944C706.395 134.093 706.623 134.243 706.851 134.393C706.745 134.693 706.651 135 706.556 135.307L706.556 135.307L706.556 135.308L706.556 135.308C706.349 135.982 706.143 136.657 705.806 137.259C701.901 144.259 696.557 150.07 690.557 155.29C689.297 156.386 687.761 157.289 686.204 157.898C679.945 160.349 674.441 155.971 675.454 149.308C675.738 147.434 676.248 145.594 676.758 143.754C676.993 142.909 677.228 142.063 677.44 141.214C677.344 141.154 677.249 141.093 677.153 141.032C676.402 141.964 675.664 142.909 674.925 143.853L674.925 143.853L674.925 143.853ZM560.986 138.86H560.986H560.986C561.263 138.864 561.564 138.869 561.902 138.869C561.466 139.801 561.021 140.714 560.581 141.618L560.58 141.618L560.58 141.618L560.58 141.618C559.625 143.58 558.69 145.498 557.907 147.477C557.688 148.03 557.469 148.583 557.25 149.137C555.322 154.001 553.39 158.875 551.876 163.871C550.792 167.446 552.021 170.972 554.258 173.967C556.122 176.464 559.515 177.423 561.711 176.134C567.089 172.979 572.231 169.455 576.027 164.426C581.15 157.639 586.09 150.712 591.004 143.771C592.221 142.05 593.239 140.121 593.966 138.146C594.296 137.251 594.298 136.237 594.3 135.222V135.221C594.301 134.767 594.302 134.313 594.332 133.869C593.965 134.12 593.569 134.348 593.173 134.576C592.318 135.069 591.463 135.562 590.902 136.284C587.94 140.097 585.019 143.943 582.099 147.788C578.792 152.143 575.485 156.498 572.117 160.805C570.164 163.303 567.812 165.512 565.476 167.673C564.865 168.238 564.034 168.566 563.202 168.894C562.821 169.043 562.44 169.193 562.081 169.366L561.463 168.787C561.555 168.385 561.629 167.976 561.704 167.566C561.864 166.683 562.025 165.8 562.357 164.987C565.407 157.503 568.514 150.041 571.621 142.58L572.487 140.501C574.001 136.864 573.219 135.052 569.397 134.128C568.184 133.835 566.918 133.762 565.652 133.69H565.652C565.045 133.656 564.438 133.621 563.837 133.562C563.508 133.53 563.176 133.507 562.845 133.484H562.844C561.988 133.424 561.13 133.364 560.314 133.149C557.673 132.45 557.179 131.497 558.372 129.117C559.118 127.63 560.146 126.254 561.214 124.966C562.869 122.973 562.321 121.406 560.066 120.307C555.33 118.001 548.687 123.758 549.232 130.364C549.75 136.629 553.285 139.314 559.575 138.875C560.013 138.845 560.455 138.852 560.986 138.86ZM508.17 146.358C508.683 144.571 509.173 142.775 509.663 140.98C510.835 136.69 512.007 132.399 513.48 128.215C514.699 124.755 518.438 124.161 522.686 126.076C526.314 127.711 526.362 129.007 523.787 132.103C522.218 133.991 521.178 136.417 520.29 138.75C519.031 142.055 517.991 145.464 517.164 148.902C516.913 149.943 517.369 151.934 518.052 152.234C519.03 152.663 520.772 152.307 521.734 151.635C524.794 149.497 527.703 147.128 530.533 144.689C530.949 144.33 531.163 143.754 531.38 143.169C531.545 142.725 531.712 142.275 531.971 141.91C533.791 139.349 535.632 136.791 537.656 134.394C538.005 133.982 538.691 133.855 539.378 133.727C539.694 133.669 540.01 133.61 540.293 133.524C540.334 133.795 540.399 134.071 540.463 134.347C540.609 134.965 540.754 135.582 540.625 136.136C540.383 137.175 539.801 138.191 539.167 139.074C537.399 141.54 535.61 143.991 533.821 146.442L533.821 146.443L533.82 146.443C531.7 149.349 529.579 152.254 527.493 155.185C522.722 161.889 516.404 159.468 512.729 154.718C508.659 149.459 508.625 149.243 508.186 146.458L508.17 146.358ZM518.633 115.188C518.484 115.497 518.325 115.824 518.134 116.157C518.361 116.558 518.558 116.985 518.751 117.403C519.199 118.372 519.626 119.296 520.349 119.756C520.95 120.139 522.863 119.293 523.588 118.472C524.603 117.321 525.417 115.992 526.231 114.664C526.585 114.086 526.939 113.508 527.31 112.944C527.739 112.293 528.14 111.612 528.542 110.931C529.461 109.373 530.38 107.814 531.633 106.6C534.224 104.091 535.1 102.605 533.953 100.334C532.388 97.23 529.417 95.787 526.381 96.655C524.258 97.261 523.441 99.168 524.34 101.23C524.564 101.745 524.726 102.467 524.541 102.952C524.162 103.952 523.864 104.99 523.565 106.028C522.768 108.804 521.97 111.582 519.612 113.661C519.195 114.028 518.932 114.571 518.633 115.188Z" fill="#021983"/>
        </g>
    </g>
</svg>
